<?xml version="1.0" encoding="utf-8"?>
<!-- Generator: Adobe Illustrator 22.1.0, SVG Export Plug-In . SVG Version: 6.00 Build 0)  -->
<svg version="1.1" id="Layer_1" xmlns="http://www.w3.org/2000/svg" xmlns:xlink="http://www.w3.org/1999/xlink" x="0px" y="0px"
	 viewBox="0 0 149.6 84.6" style="enable-background:new 0 0 149.6 84.6;" xml:space="preserve">
<style type="text/css">
	.st0{fill:#FBA919;}
	.st1{fill:#FFFFFF;}
</style>
<path class="st0" d="M74.7,84.6l67.7-9.4c4.1-0.6,7.2-4.1,7.2-8.3V18.2c0-4.2-3-7.7-7.2-8.3L74.7,0l0.2,0L7.2,9.9
	C3,10.5,0,14,0,18.2V67c0,4.2,3.1,7.7,7.2,8.3l67.7,9.4H74.7z"/>
<g>
	<g>
		<path class="st1" d="M49.2,63.7h-1.3c-0.9,0-1.4-0.4-1.6-1.3l-1-5.9h-6.6l-1,5.9c-0.1,0.9-0.7,1.3-1.5,1.3h-1.1
			c-1,0-1.4-0.6-1.3-1.6l5.5-27.6c0.2-0.9,0.7-1.3,1.6-1.3h2.4c0.8,0,1.4,0.4,1.6,1.3l5.6,27.6C50.7,63.1,50.2,63.7,49.2,63.7z
			 M44.7,53.1l-2.7-14.7l-2.7,14.7H44.7z"/>
		<path class="st1" d="M69.1,57.8c-0.2,0.8-0.7,1.2-1.5,1.2s-1.3-0.3-1.6-1.2L60.9,43v19.3c0,0.9-0.5,1.4-1.5,1.4h-0.9
			c-1,0-1.4-0.5-1.4-1.4V34.6c0-0.9,0.5-1.4,1.4-1.4h1.2c0.8,0,1.4,0.4,1.7,1.2l6.1,17.8l6.2-17.8c0.3-0.8,0.8-1.2,1.6-1.2h1.4
			c1,0,1.4,0.5,1.4,1.4v27.6c0,0.9-0.5,1.4-1.4,1.4h-1.1c-0.9,0-1.4-0.5-1.4-1.4V43L69.1,57.8z"/>
		<path class="st1" d="M97.7,47.8c2.7,0.4,3.6,2.6,3.6,4.8v5c0,3.7-2.7,6-7.3,6h-6.2c-1,0-1.4-0.5-1.4-1.4V34.6
			c0-0.9,0.5-1.4,1.4-1.4H94c4.6,0,7.1,2.3,7.1,6V43C101,45.1,100.2,47.5,97.7,47.8z M90.4,46.2h3.5c2,0,3-0.9,3-2.7v-3.5
			c0-2.1-1-3.1-3-3.1h-3.5V46.2z M94.1,49.7h-3.7v10.5h3.7c2,0,3-1,3-3.1v-4.6C97.1,50.5,96,49.7,94.1,49.7z"/>
		<path class="st1" d="M121.1,61.4v0.8c0,0.9-0.5,1.4-1.4,1.4h-9.5c-1,0-1.4-0.5-1.4-1.4V34.6c0-0.9,0.5-1.4,1.4-1.4h1.2
			c0.9,0,1.4,0.5,1.4,1.4V60h6.8C120.6,60,121.1,60.5,121.1,61.4z"/>
		<path class="st1" d="M139,63.7h-10.1c-1,0-1.4-0.5-1.4-1.4V34.6c0-0.9,0.5-1.4,1.4-1.4h10c1,0,1.4,0.5,1.4,1.4v0.7
			c0,1-0.5,1.4-1.4,1.4h-7.3v9.6h6c1,0,1.4,0.5,1.4,1.4v0.8c0,0.9-0.5,1.4-1.4,1.4h-6v10h7.5c1,0,1.4,0.5,1.4,1.4v0.7
			C140.4,63.2,140,63.7,139,63.7z"/>
	</g>
	<g>
		<path class="st1" d="M11.6,62l4.1-11.5c-2.3-0.9-3.6-2.8-3.6-5.8v-5.1c0-4.5,2.8-6.4,7.4-6.4h6.2c1,0,1.4,0.5,1.4,1.4v27.6
			c0,0.9-0.5,1.4-1.4,1.4h-1.2c-0.9,0-1.4-0.5-1.4-1.4V51.2h-3.5h0l-3.8,11.3c-0.3,0.8-0.8,1.2-1.6,1.2h-1.2
			C11.8,63.7,11.3,63,11.6,62z M23.1,36.8h-3.4c-2.3,0-3.5,0.9-3.5,3.6V44c0,2.7,1.2,3.6,3.5,3.6h3.4V36.8z"/>
	</g>
</g>
<g>
	<path class="st1" d="M73.1,17.9c-2.8,0.8-4.4,2.7-5,5.5c-0.1,0.4,0.2,0.9,0.4,1.4c0.3-0.3,0.5-0.7,0.8-1c0.1-0.1,0.1-0.2,0.1-0.3
		c0.6-2.7,2.9-4.5,5.6-4.5c2.8,0,5,1.7,5.7,4.6c0.2,0.6,0.1,1.5,1.3,1.1c0-1.8-0.6-3.3-1.8-4.7C78.3,17.8,75.8,17.1,73.1,17.9z"/>
	<path class="st1" d="M75,16.5c2.3,0,4.1-1.8,4.1-4.1c0-2.3-1.8-4.1-4.1-4.2c-2.3,0-4.1,1.8-4.2,4C70.8,14.6,72.7,16.5,75,16.5z
		 M74.9,9.4c1.7,0,3.1,1.3,3.1,3c0,1.6-1.4,2.9-3,2.9c-1.7,0-3.1-1.3-3.1-3C72,10.8,73.3,9.4,74.9,9.4z"/>
	<path class="st1" d="M83.5,17.7c1.8,0,3.5-1.7,3.5-3.5c0-1.9-1.6-3.6-3.6-3.6c-2,0-3.5,1.6-3.5,3.6C80,16.2,81.5,17.7,83.5,17.7z
		 M83.5,11.9c1.3,0,2.2,1,2.2,2.2c0,1.2-1,2.2-2.2,2.2c-1.2,0-2.2-1.1-2.2-2.3C81.2,12.9,82.2,11.9,83.5,11.9z"/>
	<path class="st1" d="M66.5,17.7c2,0,3.5-1.6,3.5-3.6c0-2-1.6-3.6-3.6-3.5c-2,0-3.6,1.7-3.5,3.6C63,16.1,64.6,17.7,66.5,17.7z
		 M66.5,11.9c1.2,0,2.2,1,2.2,2.2c0,1.2-1.1,2.2-2.3,2.2c-1.2,0-2.2-1.1-2.2-2.3C64.3,12.8,65.3,11.9,66.5,11.9z"/>
	<path class="st1" d="M86.5,19.1c-1.7-1.1-3.5-1.3-5.4-0.3c0,0.2-0.1,0.3-0.1,0.5c0.4,0.1,0.8,0.4,1.2,0.3c3.4-0.5,5.1,0.9,5.7,4.3
		c0,0.3,0.4,0.5,0.6,0.7c0.2-0.3,0.5-0.5,0.6-0.8C89.1,21.9,88.2,20.3,86.5,19.1z"/>
	<path class="st1" d="M68.8,18.9c-3.6-1.8-8.1,0.9-7.9,4.9c0,0.3,0.3,0.7,0.5,1c0.2-0.3,0.6-0.6,0.7-0.9c0.4-3.1,2.5-4.7,5.6-4.1
		c0.4,0.1,0.9-0.2,1.3-0.3C68.9,19.2,68.9,19,68.8,18.9z"/>
</g>
</svg>
